<?xml version="1.0" standalone="no"?>
<!DOCTYPE svg PUBLIC "-//W3C//DTD SVG 20010904//EN"
 "http://www.w3.org/TR/2001/REC-SVG-20010904/DTD/svg10.dtd">
<svg version="1.0" xmlns="http://www.w3.org/2000/svg"
 width="144.000000pt" height="144.000000pt" viewBox="0 0 144.000000 144.000000"
 preserveAspectRatio="xMidYMid meet">
<metadata>
Created by potrace 1.14, written by Peter Selinger 2001-2017
</metadata>
<g transform="translate(0.000000,144.000000) scale(0.100000,-0.100000)"
fill="#000000" stroke="none">
<path d="M0 720 l0 -720 720 0 720 0 0 720 0 720 -720 0 -720 0 0 -720z m754
82 l1 -192 -25 0 -25 0 0 190 c0 194 2 203 39 196 6 -1 10 -84 10 -194z m-419
143 c34 -33 31 -61 -9 -101 l-35 -35 23 -9 c40 -15 69 -60 62 -99 -11 -72 -84
-107 -199 -95 l-62 6 0 179 0 179 98 0 c91 0 100 -2 122 -25z m133 -17 c4 -31
-29 -48 -53 -28 -19 16 -19 25 1 45 23 23 48 15 52 -17z m821 18 c15 -17 5
-44 -20 -51 -24 -8 -39 1 -39 24 0 35 38 53 59 27z m-829 -195 c0 -60 3 -116
6 -125 5 -12 0 -16 -22 -16 l-29 0 0 125 c0 123 0 125 23 125 21 0 22 -3 22
-109z m200 89 c0 -22 -10 -26 -27 -9 -19 19 -68 7 -71 -18 -2 -16 10 -31 52
-63 49 -36 56 -45 56 -75 0 -29 -6 -39 -32 -55 -56 -34 -138 -22 -138 20 0 25
5 25 30 0 25 -25 51 -25 80 -2 31 25 20 55 -35 87 -67 39 -82 78 -45 115 15
15 33 20 75 20 48 0 55 -2 55 -20z m326 -5 c45 -45 30 -60 -64 -63 l-82 -3 0
-30 c0 -37 23 -84 45 -93 25 -9 64 -7 87 5 28 15 36 2 11 -22 -28 -28 -91 -35
-131 -15 -78 40 -84 179 -10 230 13 9 43 16 71 16 38 0 53 -5 73 -25z m106 14
c3 -9 9 -9 25 0 12 6 36 11 53 11 25 0 31 -4 28 -17 -2 -13 -16 -19 -47 -23
-39 -4 -46 -9 -53 -35 -5 -16 -7 -63 -4 -102 l6 -73 -33 0 -32 0 0 117 c0 67
4 121 10 125 15 12 43 9 47 -3z m193 -114 l0 -125 -25 0 -25 0 0 125 0 125 25
0 25 0 0 -125z m45 -115 c0 -11 -4 -20 -9 -20 -14 0 -23 18 -16 30 10 17 25
11 25 -10z m-600 -125 c0 -37 -4 -65 -10 -65 -6 0 -10 27 -9 65 1 36 5 65 10
65 5 0 9 -29 9 -65z m-139 43 c6 -84 4 -108 -11 -106 -18 4 -30 74 -18 101 10
20 28 23 29 5z m544 -59 c0 -27 -3 -49 -7 -49 -5 0 -8 15 -8 34 0 19 -5 38
-10 41 -8 5 -7 11 1 21 17 21 24 8 24 -47z m-904 34 c13 -13 8 -78 -6 -78 -5
0 -11 15 -13 33 -4 41 -20 42 -24 0 -4 -46 -28 -49 -28 -3 0 46 -24 43 -28 -3
-5 -48 -22 -38 -22 12 0 39 3 45 23 48 41 6 87 2 98 -9z m90 7 c22 -12 26 -59
7 -78 -26 -26 -78 -1 -78 38 0 20 25 50 41 50 6 0 19 -5 30 -10z m203 4 c11
-4 16 -19 16 -50 0 -51 -17 -60 -22 -11 -2 20 -8 32 -18 32 -10 0 -16 -12 -18
-32 -5 -49 -22 -40 -22 11 0 38 3 45 23 49 12 2 23 5 24 6 1 0 8 -2 17 -5z
m154 -6 c7 -7 12 -29 12 -49 0 -36 -1 -37 -37 -36 -31 2 -39 6 -41 23 -2 16 4
25 25 33 20 8 21 10 6 7 -15 -3 -23 1 -23 9 0 23 39 32 58 13z m151 -2 c14
-17 11 -81 -4 -81 -5 0 -11 15 -13 33 -5 46 -32 43 -32 -4 0 -50 -24 -39 -28
14 -3 35 0 41 20 45 41 8 45 7 57 -7z m-447 -28 c2 -18 8 -33 13 -33 6 0 11
15 13 33 5 52 32 42 32 -12 l0 -44 -37 1 c-37 2 -38 3 -41 45 -4 49 15 58 20
10z m539 -1 c1 -20 2 -19 12 6 13 32 29 31 38 -4 l6 -24 8 28 c4 15 11 27 17
27 9 0 5 -20 -15 -70 l-9 -25 -13 30 -13 30 -12 -29 c-13 -35 -26 -26 -36 28
-5 28 -4 37 5 32 6 -4 11 -17 12 -29z m163 21 c3 -7 7 -27 9 -44 5 -28 4 -30
-28 -31 -43 -1 -62 18 -40 41 9 9 23 16 31 16 8 0 14 5 14 11 0 7 -10 9 -26 5
-17 -5 -23 -3 -19 4 9 14 55 13 59 -2z m144 -15 c3 -20 -1 -23 -28 -23 -20 0
-29 -4 -24 -11 3 -6 17 -8 30 -5 27 7 33 -8 8 -18 -42 -16 -75 24 -54 64 16
29 64 24 68 -7z m60 16 c-11 -6 -18 -22 -18 -39 0 -17 -4 -30 -10 -30 -5 0
-10 18 -10 40 0 37 2 40 28 40 23 -1 24 -2 10 -11z"/>
<path d="M180 875 l0 -64 33 5 c107 19 117 124 10 124 l-43 0 0 -65z"/>
<path d="M182 713 l3 -78 42 -3 c55 -4 83 22 83 77 0 50 -35 81 -92 81 l-39 0
3 -77z"/>
<path d="M864 819 c-16 -17 -16 -22 -4 -30 17 -11 78 -5 92 9 13 13 -19 42
-46 42 -13 0 -31 -9 -42 -21z"/>
<path d="M280 481 c0 -11 4 -22 9 -25 12 -8 34 21 26 34 -11 17 -35 11 -35 -9z"/>
<path d="M640 460 c0 -5 5 -10 10 -10 6 0 10 5 10 10 0 6 -4 10 -10 10 -5 0
-10 -4 -10 -10z"/>
<path d="M1035 460 c-3 -5 3 -10 14 -10 12 0 21 5 21 10 0 6 -6 10 -14 10 -8
0 -18 -4 -21 -10z"/>
<path d="M1175 500 c-3 -5 3 -10 14 -10 12 0 21 5 21 10 0 6 -6 10 -14 10 -8
0 -18 -4 -21 -10z"/>
</g>
</svg>
